<?xml version="1.0" encoding="UTF-8"?>
<svg version="1.1" viewBox="0 0 32 32" xmlns="http://www.w3.org/2000/svg" xmlns:xlink="http://www.w3.org/1999/xlink">
    <!--Generated by IJSVG (https://github.com/curthard89/IJSVG)-->
    <g fill="#FFFFFF">
        <path d="M29.243,7.464h-22.407l-1.809,-7.464h-5.027v1.066h4.188l5.198,21.443c-1.108,0.323 -1.923,1.334 -1.923,2.547c0,1.472 1.193,2.666 2.666,2.666c1.473,0 2.666,-1.194 2.666,-2.666c0,-0.603 -0.208,-1.153 -0.545,-1.599h7.487c-0.337,0.446 -0.545,0.997 -0.545,1.599c0,1.472 1.193,2.666 2.665,2.666c1.472,0 2.666,-1.194 2.666,-2.666c0,-1.473 -1.193,-2.665 -2.666,-2.666v0h-11.403l-0.517,-2.133h14.968l4.337,-12.795Zm-17.515,17.594c-1.77636e-15,0.882 -0.717,1.599 -1.599,1.599c-0.882,0 -1.599,-0.717 -1.599,-1.599c0,-0.882 0.717,-1.599 1.599,-1.599c0.882,0 1.599,0.718 1.599,1.599Zm11.729,0c0,0.882 -0.718,1.599 -1.6,1.599c-0.882,0 -1.599,-0.717 -1.599,-1.599c0,-0.882 0.717,-1.599 1.599,-1.599c0.882,0 1.6,0.718 1.6,1.599Zm-13.778,-5.865l-2.585,-10.662h20.662l-3.615,10.662h-14.462Z" transform="translate(1.379, 2.138)"></path>
    </g>
</svg>