<?xml version="1.0" encoding="UTF-8"?>
<svg version="1.1" viewBox="0 0 26 32" xmlns="http://www.w3.org/2000/svg" xmlns:xlink="http://www.w3.org/1999/xlink">
    <!--Generated by IJSVG (https://github.com/curthard89/IJSVG)-->
    <g transform="translate(-259, -203)">
        <g fill="#FCBEB9" fill-rule="evenodd" stroke="none" stroke-width="1">
            <path d="M23,8h-20c-0.552,0 -1,-0.447 -1,-1c0,-0.552 0.448,-1 1,-1h20c0.552,0 1,0.448 1,1c0,0.553 -0.448,1 -1,1v0Zm-1,20c0,1.104 -0.896,2 -2,2h-14c-1.104,0 -2,-0.896 -2,-2v-18h18v18v0Zm-12,-25c0,-0.553 0.448,-1 1,-1h4c0.552,0 1,0.447 1,1v1h-6v-1v0Zm14,1h-6v-2c0,-1.104 -0.896,-2 -2,-2h-6c-1.104,0 -2,0.896 -2,2v2h-6c-1.104,0 -2,0.896 -2,2v2c0,1.104 0.896,2 2,2v18c0,2.209 1.791,4 4,4h14c2.209,0 4,-1.791 4,-4v-18c1.104,0 2,-0.896 2,-2v-2c0,-1.104 -0.896,-2 -2,-2v0Zm-11,24c0.552,0 1,-0.447 1,-1v-12c0,-0.552 -0.448,-1 -1,-1c-0.552,0 -1,0.448 -1,1v12c0,0.553 0.448,1 1,1v0Zm-5,0c0.552,0 1,-0.447 1,-1v-12c0,-0.552 -0.448,-1 -1,-1c-0.552,0 -1,0.448 -1,1v12c0,0.553 0.448,1 1,1v0Zm10,0c0.552,0 1,-0.447 1,-1v-12c0,-0.552 -0.448,-1 -1,-1c-0.552,0 -1,0.448 -1,1v12c0,0.553 0.448,1 1,1v0Z" transform="translate(259, 203)"></path>
        </g>
    </g>
</svg>